<svg width="30" height="31" viewBox="0 0 30 31" fill="none" xmlns="http://www.w3.org/2000/svg">
<path d="M29.5593 1.99233V28.2733C29.5593 29.0555 28.9281 29.6901 28.1488 29.6901H1.8519C1.0726 29.6901 0.441406 29.0555 0.441406 28.2733V1.99233C0.441406 1.21015 1.0726 0.575562 1.8519 0.575562H28.1488C28.9281 0.575562 29.5593 1.21015 29.5593 1.99233Z" fill="#EDF4FF"/>
<path d="M21.1802 6.84581V29.69H3.93164V6.84581C3.93164 6.35643 4.32599 5.96033 4.8132 5.96033H20.2986C20.7853 5.96033 21.1802 6.35643 21.1802 6.84581Z" fill="#8BB3EA"/>
<path d="M17.9637 4.33236H7.14737C6.9851 4.33236 6.85352 4.20018 6.85352 4.0372V2.45715C6.85352 2.29416 6.9851 2.16199 7.14737 2.16199H17.9637C18.1259 2.16199 18.2575 2.29416 18.2575 2.45715V4.0372C18.2575 4.20018 18.1259 4.33236 17.9637 4.33236Z" fill="#DBEAFF"/>
<path d="M25.2921 12.1083L23.9311 14.476C23.8494 14.6182 23.9516 14.7959 24.115 14.7959H26.8369C27.0003 14.7959 27.1025 14.6182 27.0208 14.476L25.6598 12.1083C25.5781 11.9662 25.3738 11.9662 25.2921 12.1083Z" fill="#B3E59F"/>
<path d="M25.6579 20.5128L27.0189 18.1451C27.1006 18.0029 26.9984 17.8252 26.835 17.8252H24.1131C23.9496 17.8252 23.8474 18.0029 23.9292 18.1451L25.2901 20.5128C25.3719 20.655 25.5762 20.655 25.6579 20.5128Z" fill="#FE646F"/>
<path d="M3.32116 29.6901H1.8519C1.0726 29.6901 0.441406 29.0555 0.441406 28.2733V1.99233C0.441406 1.21015 1.0726 0.575562 1.8519 0.575562H3.32116C2.54186 0.575562 1.91067 1.21015 1.91067 1.99233V28.2733C1.91067 29.0555 2.54186 29.6901 3.32116 29.6901Z" fill="#DBEAFF"/>
<path d="M6.28246 5.96033C5.79525 5.96033 5.4009 6.35643 5.4009 6.84581V29.69H3.93164V6.84581C3.93164 6.35643 4.32599 5.96033 4.8132 5.96033H6.28246Z" fill="#739AD6"/>
<path d="M8.61663 4.33224H7.14737C6.98516 4.33224 6.85352 4.20001 6.85352 4.03708V2.45739C6.85352 2.29387 6.98516 2.16223 7.14737 2.16223H8.61663C8.45443 2.16223 8.32278 2.29387 8.32278 2.45739V4.03708C8.32278 4.20001 8.45443 4.33224 8.61663 4.33224Z" fill="#C3DDFF"/>
<path d="M24.4456 29.2473H21.6193V6.8458C21.6193 6.11339 21.0262 5.51758 20.297 5.51758H4.81154C4.08238 5.51758 3.48921 6.11339 3.48921 6.8458V29.2473H1.85127C1.31658 29.2473 0.881558 28.8103 0.881558 28.2732V8.80453C0.881558 8.56002 0.684206 8.36179 0.440779 8.36179C0.197351 8.36179 0 8.56002 0 8.80453V28.2732C0 29.2986 0.830486 30.1327 1.85127 30.1327H24.4456C24.689 30.1327 24.8864 29.9345 24.8864 29.69C24.8864 29.4455 24.689 29.2473 24.4456 29.2473ZM20.7378 6.8458V29.2473H12.9947V6.40306H20.297C20.54 6.40306 20.7378 6.60164 20.7378 6.8458ZM4.37076 6.8458C4.37076 6.60164 4.56847 6.40306 4.81154 6.40306H12.1132V29.2473H4.37076V6.8458Z" fill="black"/>
<path d="M28.1487 0.132812H1.85127C0.830486 0.132812 0 0.966992 0 1.99232V6.73848C0 6.98299 0.197351 7.18122 0.440779 7.18122C0.684206 7.18122 0.881558 6.98299 0.881558 6.73848V1.99232C0.881558 1.45524 1.31658 1.01829 1.85127 1.01829H28.1487C28.6834 1.01829 29.1184 1.45524 29.1184 1.99232V28.2733C29.1184 28.8104 28.6834 29.2473 28.1487 29.2473H26.5026C26.2591 29.2473 26.0618 29.4456 26.0618 29.6901C26.0618 29.9346 26.2591 30.1328 26.5026 30.1328H28.1487C29.1695 30.1328 30 29.2986 30 28.2733V1.99232C30 0.966992 29.1695 0.132812 28.1487 0.132812Z" fill="black"/>
<path d="M17.963 4.7752C18.3681 4.7752 18.6976 4.44421 18.6976 4.0373V2.45726C18.6976 2.05035 18.3681 1.71936 17.963 1.71936H7.14674C6.74164 1.71936 6.41211 2.05035 6.41211 2.45726V4.0373C6.41211 4.44421 6.74164 4.7752 7.14674 4.7752H17.963ZM7.29367 2.60484H17.8161V3.88973H7.29367V2.60484Z" fill="black"/>
<path d="M24.1138 15.2388H26.8357C27.0683 15.2388 27.285 15.1131 27.4013 14.9107C27.5176 14.7084 27.5176 14.457 27.4013 14.2547L26.0403 11.887C25.924 11.6847 25.7073 11.559 25.4747 11.559C25.2422 11.559 25.0254 11.6846 24.9091 11.887L23.5482 14.2547C23.4319 14.457 23.4319 14.7084 23.5482 14.9107C23.6644 15.1131 23.8812 15.2388 24.1138 15.2388ZM25.4747 12.674L26.44 14.3533H24.5094L25.4747 12.674Z" fill="black"/>
<path d="M27.4013 17.7105C27.285 17.5081 27.0682 17.3824 26.8357 17.3824H24.1138C23.8812 17.3824 23.6644 17.5081 23.5482 17.7105C23.4319 17.9128 23.4319 18.1642 23.5482 18.3665L24.9091 20.7342C25.0254 20.9365 25.2422 21.0623 25.4747 21.0623C25.7073 21.0623 25.9241 20.9366 26.0403 20.7342L27.4013 18.3665C27.5176 18.1642 27.5176 17.9128 27.4013 17.7105ZM25.4747 19.9473L24.5094 18.268H26.44L25.4747 19.9473Z" fill="black"/>
</svg>
