<svg width="31" height="30" viewBox="0 0 31 30" fill="none" xmlns="http://www.w3.org/2000/svg">
<g clip-path="url(#clip0)">
<path fill-rule="evenodd" clip-rule="evenodd" d="M24.4032 28.6299C25.1024 29.0634 25.8764 29.2677 26.697 29.2694H26.7103H29.7448C29.8976 29.2694 30.0222 29.1465 30.0222 28.9936V27.2679C30.0222 27.1051 29.8893 26.9722 29.7265 26.9722H26.7103C26.3133 26.9722 25.9512 26.8858 25.6124 26.6766C24.4879 25.9806 23.7206 23.8944 23.2406 22.7151C22.5197 20.9478 21.6793 18.8451 20.0034 17.777C19.2626 17.3037 18.4389 17.0828 17.5619 17.0828H15.9375V19.3799H17.5619C18.0004 19.3799 18.3973 19.4778 18.7678 19.7137C19.8855 20.4263 20.6296 22.3979 21.113 23.5822C21.842 25.3744 22.6841 27.5652 24.4032 28.6299Z" fill="#FF8086"/>
<path fill-rule="evenodd" clip-rule="evenodd" d="M15.9367 19.3801V17.083V11.1151C15.8005 11.0586 15.6743 10.9772 15.5646 10.8659L9.20664 4.5094L2.84863 10.8659C2.739 10.9772 2.61109 11.0586 2.47656 11.1151V19.3801H4.41818H13.9935H15.9367Z" fill="#B3E59F"/>
<path fill-rule="evenodd" clip-rule="evenodd" d="M9.2067 4.50931L15.5648 10.8659C15.6744 10.9771 15.8006 11.0585 15.9368 11.115C16.3504 11.2844 16.8437 11.2014 17.1792 10.8659C17.6243 10.4224 17.6243 9.6965 17.1792 9.25136L10.0139 2.08593C9.56881 1.64079 8.84301 1.64079 8.39951 2.08593L1.23426 9.25136C1.01172 9.47226 0.90209 9.76294 0.900391 10.0536V10.0652C0.902031 10.3559 1.01166 10.6449 1.23426 10.8658C1.56813 11.2013 2.06307 11.2844 2.47662 11.1149C2.61115 11.0584 2.73906 10.9771 2.84869 10.8658L9.2067 4.50931Z" fill="#FF8086"/>
<path fill-rule="evenodd" clip-rule="evenodd" d="M13.9941 19.38H15.9374V29.2695H13.9941V19.38Z" fill="#BE8282"/>
<path fill-rule="evenodd" clip-rule="evenodd" d="M2.47656 19.38H4.41818V29.2695H2.47656V19.38Z" fill="#BE8282"/>
<path fill-rule="evenodd" clip-rule="evenodd" d="M2.84863 12.5468L9.2067 6.18858L15.5648 12.5468C15.6744 12.6564 15.8006 12.7395 15.9368 12.7943V11.1151C15.8007 11.0586 15.6744 10.9772 15.5648 10.8659L9.20664 4.5094L2.84863 10.8659C2.739 10.9772 2.61109 11.0586 2.47656 11.1151V12.7943C2.61109 12.7395 2.739 12.6564 2.84863 12.5468Z" fill="#95D6A4"/>
<path fill-rule="evenodd" clip-rule="evenodd" d="M13.9941 19.38H15.9374V21.0576H13.9941V19.38Z" fill="#AF7373"/>
<path fill-rule="evenodd" clip-rule="evenodd" d="M20.6146 8.65176H27.0507C28.6917 8.65176 30.0221 7.32133 30.0221 5.68194C30.0221 4.0409 28.6917 2.71047 27.0507 2.71047C26.9411 2.71047 26.8331 2.71709 26.7252 2.72875C26.1737 1.5478 24.9746 0.730591 23.586 0.730591C21.6726 0.730591 20.1196 2.28192 20.1196 4.19536C20.1196 4.38139 20.1346 4.56409 20.1628 4.7435C19.2875 4.94782 18.6348 5.73344 18.6348 6.67188C18.6348 7.76477 19.5217 8.65176 20.6146 8.65176Z" fill="#ECEAEC"/>
<path fill-rule="evenodd" clip-rule="evenodd" d="M23.3718 8.65176H27.0508C28.6918 8.65176 30.0222 7.32133 30.0222 5.68194C30.0222 4.0409 28.6918 2.71047 27.0508 2.71047C26.9412 2.71047 26.8333 2.71709 26.7253 2.72875C26.1738 1.5478 24.9747 0.730591 23.5861 0.730591C23.1477 0.730591 22.7291 0.811978 22.3438 0.95981C23.6692 1.68397 24.5926 3.32008 24.5926 5.22186C24.5926 6.57883 24.1226 7.79969 23.3718 8.65176Z" fill="#DAD8DB"/>
<path fill-rule="evenodd" clip-rule="evenodd" d="M11.8482 19.38V16.7623C11.8482 15.3106 10.6606 14.1213 9.20729 14.1213C7.75398 14.1213 6.56641 15.3106 6.56641 16.7623V19.38H7.44004H10.9745H11.8482Z" fill="#6F6571"/>
<path fill-rule="evenodd" clip-rule="evenodd" d="M9.20812 11.9338C10.0453 11.9338 10.7229 11.2545 10.7229 10.419C10.7229 9.58187 10.0453 8.90417 9.20812 8.90417C8.371 8.90417 7.69336 9.58187 7.69336 10.419C7.69336 11.2545 8.371 11.9338 9.20812 11.9338Z" fill="#9FD4FE"/>
<path fill-rule="evenodd" clip-rule="evenodd" d="M2.47656 19.38H4.41818V21.0576H2.47656V19.38Z" fill="#AF7373"/>
<path fill-rule="evenodd" clip-rule="evenodd" d="M6.56641 18.0711C6.56641 16.6194 7.75398 15.4302 9.20729 15.4302C10.6606 15.4302 11.8482 16.6195 11.8482 18.0711V16.7623C11.8482 15.3106 10.6606 14.1213 9.20729 14.1213C7.75398 14.1213 6.56641 15.3106 6.56641 16.7623V18.0711Z" fill="#5D5360"/>
<path fill-rule="evenodd" clip-rule="evenodd" d="M7.75647 10.851C7.9425 10.2264 8.52217 9.76967 9.20812 9.76967C9.89408 9.76967 10.4737 10.2265 10.6598 10.851C10.7013 10.7148 10.7229 10.5686 10.7229 10.4191C10.7229 9.58199 10.0453 8.9043 9.20812 8.9043C8.371 8.9043 7.69336 9.58199 7.69336 10.4191C7.69336 10.5686 7.71498 10.7147 7.75647 10.851Z" fill="#72BFFC"/>
<path d="M29.7258 26.5326H26.7096C26.3723 26.5326 26.0968 26.4595 25.843 26.3027C24.9286 25.7368 24.2001 23.9243 23.7648 22.8414C23.7159 22.7198 23.6669 22.5984 23.6175 22.4771C22.9013 20.7208 22.01 18.535 20.2394 17.4066C19.4467 16.9 18.5455 16.6432 17.5612 16.6432H16.3762V11.6388C16.7973 11.6376 17.1926 11.4736 17.4893 11.1769C17.7876 10.8797 17.9521 10.4832 17.9525 10.0604C17.9529 9.63685 17.7886 9.239 17.4894 8.93982L14.2141 5.67597C14.0421 5.50464 13.7639 5.50505 13.5926 5.67708C13.4213 5.849 13.4218 6.12726 13.5937 6.29853L16.8685 9.56179C17.001 9.69427 17.0738 9.87105 17.0736 10.0596C17.0734 10.2473 17.0008 10.423 16.8685 10.5548C16.5947 10.8286 16.1494 10.8286 15.8755 10.5548L9.51742 4.19824C9.3458 4.02662 9.0676 4.02662 8.89604 4.19824L2.53791 10.5548C2.40561 10.6871 2.22912 10.76 2.04086 10.76C2.04063 10.76 2.04039 10.76 2.04016 10.76C1.85242 10.7598 1.67682 10.6871 1.5444 10.5543C1.41262 10.423 1.34002 10.2473 1.33984 10.0596C1.33967 9.87105 1.4125 9.69427 1.54498 9.56179L8.71082 2.39578C8.84207 2.26406 9.01774 2.1914 9.20541 2.19123H9.20611C9.39438 2.19123 9.57092 2.26406 9.70322 2.39636L12.2411 4.93435C12.4127 5.10597 12.6909 5.10597 12.8625 4.93435C13.0342 4.76273 13.0342 4.48453 12.8625 4.3129L10.3247 1.77492C10.0263 1.47662 9.62916 1.31238 9.20611 1.31238C9.20559 1.31238 9.20506 1.31238 9.20459 1.31238C8.78184 1.31279 8.38533 1.4772 8.08879 1.77492L0.923536 8.94035C0.624825 9.23906 0.460528 9.63679 0.460938 10.0604C0.461348 10.4832 0.625821 10.8797 0.922891 11.1757C1.21955 11.4735 1.61518 11.6378 2.03717 11.6388V19.3796V28.8296H0.900391C0.657696 28.8296 0.460938 29.0264 0.460938 29.2691C0.460938 29.5118 0.657696 29.7085 0.900391 29.7085H29.7441C30.1394 29.7085 30.4609 29.3877 30.4609 28.9933V27.2676C30.4609 26.8624 30.1312 26.5326 29.7258 26.5326ZM3.97879 28.8297H2.91607V19.8192H3.97879V28.8297ZM7.00006 28.8297H4.8577V19.8192H6.56582H7.00006V28.8297ZM10.5345 24.0129H7.87897V22.3555H10.5345V24.0129ZM10.5345 24.8918V26.5475H7.87897V24.8918H10.5345ZM10.5345 21.4766H7.87897V19.8192H10.5345V21.4766ZM11.4081 18.9402H7.00527V16.762C7.00527 15.5481 7.99281 14.5605 9.2067 14.5605C10.4206 14.5605 11.4081 15.5481 11.4081 16.762V18.9402ZM7.87897 27.4264H10.5345V28.8297H7.87897V27.4264ZM13.5541 28.8297H11.4134V19.8192H11.8476H13.5541V28.8297ZM12.287 18.9402V16.762C12.287 15.0635 10.9052 13.6816 9.2067 13.6816C7.50818 13.6816 6.12637 15.0634 6.12637 16.762V18.9402H4.41824H2.91607V11.3758C3.00268 11.3181 3.08418 11.2515 3.15936 11.1763L9.2067 5.1304L15.254 11.1763C15.3292 11.2515 15.4107 11.3181 15.4973 11.3758V18.9402H13.9935H12.287V18.9402ZM16.3762 28.8297V25.9206C16.3762 25.6779 16.1795 25.4812 15.9368 25.4812C15.6941 25.4812 15.4973 25.6779 15.4973 25.9206V28.8297H14.433V19.8192H15.4973V23.8926C15.4973 24.1353 15.6941 24.332 15.9368 24.332C16.1795 24.332 16.3762 24.1353 16.3762 23.8926V19.8192H17.5612C17.9388 19.8192 18.247 19.9034 18.5308 20.0841C19.4611 20.6772 20.1539 22.3873 20.6123 23.5189C20.669 23.6588 20.7259 23.7986 20.7827 23.9385C21.4633 25.6153 22.302 27.6816 23.9104 28.8297H16.3762ZM29.582 28.8297H26.7096C25.9482 28.8297 25.2497 28.6366 24.634 28.2561C23.0975 27.3044 22.3004 25.3406 21.5971 23.6079C21.5404 23.4683 21.4836 23.3286 21.427 23.1889C20.9266 21.9537 20.1704 20.087 19.003 19.3428C18.5776 19.0719 18.106 18.9402 17.5612 18.9402H16.3762V17.522H17.5612C18.3752 17.522 19.117 17.7323 19.7666 18.1474C21.3019 19.1258 22.0997 21.0825 22.8037 22.8089C22.8525 22.9288 22.901 23.0489 22.9493 23.169C23.4556 24.4287 24.2206 26.3322 25.3807 27.0502C25.7743 27.2932 26.209 27.4114 26.7096 27.4114H29.582V28.8297Z" fill="black"/>
<path d="M20.6146 9.09103H27.0507C28.9314 9.09103 30.4616 7.56162 30.4616 5.68175C30.4616 3.80095 28.9314 2.27083 27.0507 2.27083C27.0284 2.27083 27.0059 2.27107 26.9835 2.27154C26.296 1.05917 24.9939 0.290894 23.586 0.290894C21.4323 0.290894 19.6802 2.04238 19.6802 4.19517C19.6802 4.27486 19.6827 4.35507 19.6876 4.43529C18.7925 4.80331 18.1953 5.6746 18.1953 6.67164C18.1953 8.0057 19.2806 9.09103 20.6146 9.09103ZM20.2627 5.17123C20.4869 5.1189 20.6327 4.9024 20.5969 4.67494C20.5718 4.5155 20.559 4.35408 20.559 4.19517C20.559 2.52701 21.9169 1.1698 23.5859 1.1698C24.7562 1.1698 25.832 1.85464 26.3269 2.91443C26.4064 3.08464 26.5854 3.18548 26.7721 3.16544C26.8707 3.15484 26.9618 3.14968 27.0506 3.14968C28.4468 3.14968 29.5826 4.28552 29.5826 5.68169C29.5826 7.07693 28.4468 8.21207 27.0506 8.21207H20.6146C19.7652 8.21207 19.0742 7.52107 19.0742 6.67164C19.0742 5.95158 19.5629 5.33458 20.2627 5.17123Z" fill="black"/>
<path d="M9.20812 8.4646C8.13059 8.4646 7.25391 9.34128 7.25391 10.4189C7.25391 11.4965 8.13059 12.3732 9.20812 12.3732C10.2857 12.3732 11.1623 11.4965 11.1623 10.4189C11.1623 9.34128 10.2857 8.4646 9.20812 8.4646ZM9.20812 11.4942C8.61521 11.4942 8.13281 11.0118 8.13281 10.4189C8.13281 9.82591 8.61521 9.34351 9.20812 9.34351C9.80103 9.34351 10.2834 9.82591 10.2834 10.4189C10.2834 11.0118 9.80103 11.4942 9.20812 11.4942Z" fill="black"/>
</g>
<defs>
<clipPath id="clip0">
<rect width="30" height="30" fill="white" transform="translate(0.460938)"/>
</clipPath>
</defs>
</svg>
