<svg width="30" height="30" viewBox="0 0 30 30" fill="none" xmlns="http://www.w3.org/2000/svg">
<path d="M16.8887 5.26514H18.6465V10.3335H16.8887V5.26514Z" fill="#DBEDFF"/>
<path d="M26.459 5.26514H28.2168V10.3335H26.459V5.26514Z" fill="#DBEDFF"/>
<path d="M29.0184 10.1565H22.7498L22.317 10.48H21.2476L20.992 10.2749H13.1795L12.7954 10.5093H11.8406L11.4217 10.1565H4.87178L4.33594 10.7217V17.2671H28.2166L29.4214 16.105L29.56 15.437V10.6981C29.56 10.399 29.3176 10.1565 29.0184 10.1565Z" fill="#6E60B8"/>
<path d="M4.64654 10.9913C4.64654 10.6629 4.78705 10.3663 5.01 10.1564H0.981094C0.681973 10.1564 0.439453 10.3988 0.439453 10.698V15.4366L0.571816 16.1123L1.36529 17.267H4.64654V10.9913Z" fill="#6353B2"/>
<path d="M21.1445 11.9142H15.7937V10.1564H21.1445V11.9142Z" fill="#B5DCFF"/>
<path d="M15.9355 11.9142H13.0449V10.1564H15.9355V11.9142Z" fill="#8BCAFF"/>
<path d="M16.8887 4.05176V5.73521L17.0949 5.851H18.4157L18.6465 5.73563V4.05176C18.6465 2.05992 17.026 0.439453 15.0342 0.439453C13.0423 0.439453 11.4219 2.05992 11.4219 4.05176V16.8279C11.7674 16.9959 12.1548 17.091 12.5648 17.091C12.7767 17.091 12.9824 17.0653 13.1797 17.0178V4.05176C13.1797 3.02918 14.0116 2.19727 15.0342 2.19727C16.0568 2.19727 16.8887 3.02918 16.8887 4.05176Z" fill="#DBEDFF"/>
<path d="M26.459 4.05176V5.72941L26.6755 5.851H27.9964L28.2168 5.74078V4.05176C28.2168 2.05992 26.5963 0.439453 24.6045 0.439453C22.6127 0.439453 20.9922 2.05992 20.9922 4.05176V16.7381C21.3781 16.962 21.8258 17.0911 22.3042 17.0911C22.4563 17.0911 22.605 17.0773 22.75 17.0524V4.05176C22.75 3.02918 23.5819 2.19727 24.6045 2.19727C25.6271 2.19727 26.459 3.02918 26.459 4.05176Z" fill="#DBEDFF"/>
<path d="M29.5602 18.7415V15.4369C29.1476 16.3433 28.2346 16.9739 27.1738 16.9739C26.2893 16.9739 25.5076 16.5356 25.033 15.8645C24.8897 15.6618 24.5883 15.6618 24.4449 15.8645C23.9704 16.5356 23.1886 16.9739 22.3041 16.9739C21.4196 16.9739 20.6378 16.5356 20.1633 15.8645C20.02 15.6618 19.7186 15.6618 19.5752 15.8645C19.1007 16.5356 18.3189 16.9739 17.4344 16.9739C16.5499 16.9739 15.7682 16.5356 15.2936 15.8645C15.1503 15.6618 14.8488 15.6618 14.7055 15.8645C14.231 16.5356 13.4492 16.9739 12.5647 16.9739C11.6802 16.9739 10.8984 16.5356 10.4239 15.8645C10.2806 15.6618 9.97916 15.6618 9.83584 15.8645C9.36129 16.5356 8.57953 16.9739 7.695 16.9739C6.81053 16.9739 6.02877 16.5356 5.55422 15.8645C5.4109 15.6618 5.10943 15.6618 4.96611 15.8645C4.79355 16.1086 4.57992 16.3213 4.33594 16.4939V26.9448H29.1772L29.56 25.3508V22.0461L29.392 21.7396V19.6205L29.5602 18.7415Z" fill="#60B9FE"/>
<path d="M4.64654 16.2367C4.1751 16.6927 3.53361 16.9738 2.82586 16.9738C1.7649 16.9738 0.851836 16.3431 0.439453 15.4365V18.7415L0.603574 19.5326V21.9154L0.439453 22.0462V25.3509L0.754922 26.9447H4.64654V16.2367Z" fill="#1CA8FF"/>
<path d="M3.54516 20.1774C3.31646 20.2426 3.07553 20.2786 2.82586 20.2786C1.76502 20.2786 0.852012 19.648 0.439453 18.7416V22.0463C0.852012 22.9527 1.76496 23.5833 2.82586 23.5833C2.87256 23.5833 2.91879 23.5814 2.96496 23.579L3.17684 23.351L3.63094 20.5092L3.54516 20.1774Z" fill="#60B9FE"/>
<path d="M27.1743 20.2786C26.2898 20.2786 25.5081 19.8403 25.0335 19.1691C24.8902 18.9665 24.5887 18.9665 24.4454 19.1691C23.9709 19.8403 23.1891 20.2786 22.3046 20.2786C21.4201 20.2786 20.6383 19.8403 20.1638 19.1691C20.0205 18.9665 19.719 18.9665 19.5757 19.1691C19.1011 19.8403 18.3194 20.2786 17.4348 20.2786C16.5504 20.2786 15.7686 19.8403 15.2941 19.1691C15.1507 18.9665 14.8493 18.9665 14.706 19.1691C14.2314 19.8403 13.4496 20.2786 12.5651 20.2786C12.3137 20.2786 12.0712 20.2421 11.8411 20.176L11.7461 20.4701L12.0732 23.2924L12.4221 23.5788C12.4696 23.5814 12.5171 23.5832 12.5651 23.5832C13.4496 23.5832 14.2314 23.145 14.706 22.4738C14.8493 22.2711 15.1507 22.2711 15.2941 22.4738C15.7686 23.145 16.5503 23.5832 17.4348 23.5832C18.3194 23.5832 19.1011 23.145 19.5757 22.4738C19.719 22.2711 20.0204 22.2711 20.1638 22.4738C20.6383 23.1449 21.42 23.5832 22.3046 23.5832C23.1891 23.5832 23.9709 23.145 24.4454 22.4738C24.5887 22.2711 24.8901 22.2711 25.0335 22.4738C25.5081 23.1449 26.2898 23.5832 27.1743 23.5832C28.2351 23.5832 29.1482 22.9526 29.5607 22.0461V18.7415C29.1482 19.648 28.2352 20.2786 27.1743 20.2786Z" fill="#8BCAFF"/>
<path d="M7.6926 17.8126C5.02975 17.8126 2.87109 19.9713 2.87109 22.6341C2.87109 24.082 3.51023 25.3799 4.52074 26.2637L4.69447 26.4369H5.93467L6.77449 27.14H8.64949L9.68467 26.3783H10.5734L10.8664 26.262C11.8758 25.3782 12.5142 24.0811 12.5142 22.6341C12.5142 19.9713 10.3554 17.8126 7.6926 17.8126Z" fill="#FF5595"/>
<path d="M8.11272 17.908L7.84383 18.0532L7.1407 20.3091L6.84375 23.2534L7.47762 26.6225L7.84313 27.0963L8.835 26.8081L8.90033 26.5939C9.45018 25.723 9.81035 24.2747 9.81035 22.6342C9.81047 20.2989 9.08109 18.3517 8.11272 17.908Z" fill="#FFE02F"/>
<path d="M7.18697 22.6882C7.18697 20.7945 7.54445 19.0909 8.1141 17.908C7.97828 17.8457 7.83783 17.8127 7.69398 17.8127C6.52434 17.8127 5.57617 19.9714 5.57617 22.6342C5.57617 24.2731 5.93559 25.72 6.48443 26.5911L6.63016 26.888L7.69398 27.1401L7.93891 27.0689C7.47232 25.9168 7.18697 24.3788 7.18697 22.6882Z" fill="#FBC700"/>
<path d="M27.1739 26.888C26.2894 26.888 25.5077 26.4497 25.0331 25.7786C24.8898 25.5759 24.5884 25.5758 24.445 25.7786C23.9705 26.4497 23.1887 26.888 22.3042 26.888C21.4197 26.888 20.6379 26.4498 20.1634 25.7786C20.0201 25.576 19.7187 25.5759 19.5753 25.7786C19.1007 26.4498 18.319 26.8881 17.4345 26.8881C16.55 26.8881 15.7682 26.4498 15.2937 25.7787C15.1504 25.576 14.8489 25.576 14.7056 25.7787C14.231 26.4498 13.4493 26.8881 12.5647 26.8881C11.6803 26.8881 10.8985 26.4498 10.4239 25.7787C10.2806 25.576 9.97922 25.576 9.83584 25.7787C9.36129 26.4498 8.57953 26.8882 7.695 26.8882C6.81053 26.8882 6.02877 26.4499 5.55422 25.7787C5.4109 25.5761 5.10943 25.5761 4.96611 25.7787C4.79355 26.0228 4.57992 26.2355 4.33594 26.4082V29.113L4.75723 29.5608H29.0324C29.3238 29.5608 29.56 29.3246 29.56 29.0332V25.3511C29.1478 26.2574 28.2348 26.888 27.1739 26.888Z" fill="#8BCAFF"/>
<path d="M4.64654 28.8819V26.1507C4.1751 26.6067 3.53361 26.8879 2.82586 26.8879C1.76502 26.8879 0.852012 26.2573 0.439453 25.3508V29.0329C0.439453 29.3242 0.675703 29.5605 0.96709 29.5605H4.87148C4.73086 29.3699 4.64654 29.1356 4.64654 28.8819Z" fill="#60B9FE"/>
<path d="M29.0189 9.7169H28.6566V4.05176C28.6566 1.81758 26.839 0 24.6049 0C22.3707 0 20.5531 1.81764 20.5531 4.05176V9.71695H19.0863V4.05176C19.0863 1.81758 17.2687 0 15.0346 0C12.8004 0 10.9828 1.81764 10.9828 4.05176V9.7169H7.40508C7.16232 9.7169 6.96562 9.91365 6.96562 10.1563C6.96562 10.399 7.16232 10.5958 7.40508 10.5958H10.9828V15.8523C10.9056 15.7711 10.8376 15.6875 10.7834 15.6107C10.6338 15.3993 10.3897 15.2729 10.1304 15.2729C9.87117 15.2729 9.62713 15.3992 9.47754 15.6107C8.60795 16.8404 6.78357 16.8411 5.91363 15.6107C5.76404 15.3992 5.52006 15.2729 5.26072 15.2729C5.00121 15.2729 4.75729 15.3994 4.60781 15.6107C3.65648 16.956 1.61941 16.7997 0.878906 15.3335V10.698C0.878906 10.6417 0.924727 10.5959 0.981035 10.5959H5.35424C5.59699 10.5959 5.79369 10.3991 5.79369 10.1564C5.79369 9.91371 5.59699 9.71695 5.35424 9.71695H0.981035C0.440098 9.71689 0 10.1571 0 10.698V29.0329C0 29.5663 0.433945 30 0.96709 30H29.0329C29.566 30 30 29.5663 30 29.0329C30 28.864 30 14.3669 30 14.2061C30 13.9634 29.8033 13.7666 29.5605 13.7666C29.3178 13.7666 29.1211 13.9634 29.1211 14.2061V15.3338C28.3821 16.7989 26.3435 16.9562 25.3922 15.6108C25.2426 15.3994 24.9986 15.273 24.7393 15.273C24.48 15.273 24.236 15.3993 24.0864 15.6108C23.8608 15.9298 23.5464 16.1862 23.1897 16.3455V10.5959H29.0188C29.0752 10.5959 29.121 10.6417 29.121 10.6981V12.1553C29.121 12.398 29.3177 12.5948 29.5604 12.5948C29.8032 12.5948 29.9999 12.398 29.9999 12.1553V10.6981C30 10.1571 29.5598 9.7169 29.0189 9.7169ZM21.432 4.05176C21.432 2.30227 22.8553 0.878906 24.6048 0.878906C26.3543 0.878906 27.7777 2.30227 27.7777 4.05176V9.7169H26.8988V4.05176C26.8988 2.78689 25.8697 1.75781 24.6048 1.75781C23.3399 1.75781 22.3109 2.78689 22.3109 4.05176V16.5342C22.0037 16.5342 21.7127 16.474 21.432 16.3512C21.432 15.7544 21.432 4.48113 21.432 4.05176ZM19.8697 15.273C19.6104 15.273 19.3663 15.3993 19.2168 15.6107C18.3472 16.8405 16.5228 16.8411 15.6529 15.6108C15.5033 15.3993 15.2592 15.2729 14.9999 15.2729C14.9027 15.2729 14.8076 15.2907 14.7189 15.324C14.2729 15.4916 14.341 15.8618 13.6194 16.2607V12.3536H20.553V15.6512C20.3815 15.4204 20.174 15.273 19.8697 15.273ZM16.4496 9.71695H13.6194V4.05176C13.6194 3.27152 14.2542 2.63672 15.0345 2.63672C15.8147 2.63672 16.4495 3.27152 16.4495 4.05176V9.71695H16.4496ZM20.553 11.4748H13.6194V10.5959H20.553V11.4748ZM11.8616 4.05176C11.8616 2.30227 13.285 0.878906 15.0345 0.878906C16.7839 0.878906 18.2073 2.30227 18.2073 4.05176V9.71695H17.3284V4.05176C17.3284 2.78689 16.2994 1.75781 15.0345 1.75781C13.7695 1.75781 12.7405 2.78689 12.7405 4.05176V16.5264C12.4423 16.5504 12.1531 16.5162 11.8616 16.4163C11.8616 15.8816 11.8616 4.58818 11.8616 4.05176ZM12.5933 20.7179C13.5381 20.7092 14.4281 20.2614 15 19.511C15.5775 20.2688 16.4795 20.718 17.4348 20.718C18.39 20.718 19.2921 20.2688 19.8697 19.511C20.4472 20.2688 21.3493 20.718 22.3045 20.718C23.2598 20.718 24.1618 20.2688 24.7394 19.511C25.3169 20.2688 26.2189 20.718 27.1742 20.718C27.8971 20.718 28.5824 20.4609 29.1212 20.017V21.9462C28.7512 22.6767 27.9968 23.1437 27.1742 23.1437C26.4674 23.1437 25.8012 22.7984 25.3923 22.22C25.2427 22.0085 24.9987 21.8822 24.7394 21.8822C24.4801 21.8822 24.2361 22.0085 24.0865 22.2199C23.6776 22.7984 23.0113 23.1437 22.3045 23.1437C21.5977 23.1437 20.9315 22.7984 20.5226 22.2199C20.373 22.0084 20.1289 21.8821 19.8696 21.8821C19.6104 21.8821 19.3663 22.0084 19.2168 22.2199C18.8078 22.7983 18.1416 23.1436 17.4348 23.1436C16.728 23.1436 16.0618 22.7983 15.6529 22.2199C15.5033 22.0084 15.2593 21.8821 15 21.8821C14.7407 21.8821 14.4967 22.0083 14.3471 22.2199C14.01 22.6966 13.4981 23.015 12.9328 23.1122C13.0065 22.2997 12.8909 21.4801 12.596 20.7254C12.5951 20.7231 12.5943 20.7204 12.5933 20.7179ZM12.7695 24.0152C13.6479 23.9561 14.4639 23.5192 15 22.8158C15.5775 23.5736 16.4796 24.0227 17.4348 24.0227C18.39 24.0227 19.2921 23.5736 19.8697 22.8158C20.4472 23.5736 21.3493 24.0227 22.3045 24.0227C23.2598 24.0227 24.1618 23.5735 24.7394 22.8157C25.3169 23.5735 26.219 24.0227 27.1742 24.0227C27.8972 24.0227 28.5824 23.7652 29.1212 23.3211V25.2478C28.7516 25.9795 27.9976 26.4485 27.1742 26.4485C26.4674 26.4485 25.8012 26.1032 25.3923 25.5248C25.2427 25.3133 24.9987 25.187 24.7394 25.1869C24.4802 25.1869 24.2361 25.3132 24.0865 25.5247C23.6776 26.1032 23.0113 26.4485 22.3045 26.4485C21.5977 26.4485 20.9315 26.1032 20.5226 25.5248C20.3731 25.3133 20.1291 25.187 19.8698 25.1869H19.8697C19.6104 25.1869 19.3664 25.3132 19.2168 25.5247C18.8078 26.1031 18.1416 26.4485 17.4348 26.4485C16.728 26.4485 16.0618 26.1032 15.6529 25.5248C15.5033 25.3133 15.2593 25.187 15 25.187C14.7407 25.187 14.4967 25.3133 14.3471 25.5248C13.9382 26.1032 13.272 26.4485 12.5651 26.4485C12.2102 26.4485 11.8655 26.3613 11.5586 26.2013C12.1346 25.5772 12.5484 24.8262 12.7695 24.0152ZM10.8754 25.6453C10.8742 25.6438 10.8729 25.6424 10.8718 25.641C10.8409 25.6032 10.8112 25.5645 10.7832 25.5249C10.6337 25.3134 10.3897 25.1871 10.1304 25.187H10.1303C10.0656 25.187 10.002 25.1949 9.94043 25.21C10.4588 23.232 10.3657 20.315 9.36059 18.5825C12.2064 19.7577 12.9825 23.4186 10.8754 25.6453ZM6.7923 26.2514C6.30428 25.4071 6.01512 24.0683 6.01512 22.6342C6.01512 20.1261 6.90123 18.2521 7.69353 18.2521C8.48584 18.2521 9.37195 20.1261 9.37195 22.6342C9.37195 24.0702 9.08238 25.4098 8.59342 26.254C8.02113 26.5131 7.3684 26.5141 6.7923 26.2514ZM2.4542 23.1117C1.78148 22.9946 1.19227 22.5649 0.878906 21.9463V20.017C1.40971 20.4544 2.08271 20.7104 2.79381 20.7178C2.49691 21.4757 2.38031 22.2976 2.4542 23.1117ZM2.61756 24.0154C2.83881 24.8269 3.25301 25.5783 3.8298 26.2028C3.52342 26.3619 3.17977 26.4485 2.8258 26.4485C2.00244 26.4485 1.24846 25.9796 0.878848 25.2478V23.3212C1.36564 23.7223 1.97186 23.9711 2.61756 24.0154ZM4.60781 25.5248C4.60723 25.5255 4.60664 25.5263 4.60605 25.5271C4.57846 25.566 4.54922 25.6041 4.51881 25.6414C4.51717 25.6434 4.51535 25.6454 4.51371 25.6474C2.38828 23.4045 3.19318 19.7525 6.02637 18.5824C5.0209 20.3156 4.92832 23.2316 5.44641 25.2092C5.38611 25.1948 5.32389 25.187 5.26066 25.187C5.00139 25.187 4.75734 25.3133 4.60781 25.5248ZM5.26066 16.2064C5.74723 16.8448 6.47725 17.2807 7.30582 17.3875C5.61211 17.5115 4.13854 18.4407 3.26742 19.7931C2.29055 19.9963 1.31742 19.5067 0.878906 18.6384V16.7123C2.21941 17.8175 4.20645 17.5896 5.26066 16.2064ZM29.1211 29.0329C29.1211 29.0815 29.0815 29.1211 29.0329 29.1211H0.96709C0.918457 29.1211 0.878906 29.0815 0.878906 29.0329V26.6265C1.41762 27.0704 2.10299 27.3274 2.82586 27.3274C3.78727 27.3274 4.68709 26.8714 5.26072 26.1204C6.47877 27.7186 8.90033 27.7341 10.1304 26.1204C10.6904 26.8549 11.585 27.3274 12.5652 27.3274C13.5204 27.3274 14.4225 26.8781 15.0001 26.1204C15.5776 26.8781 16.4797 27.3274 17.4349 27.3274C18.3901 27.3274 19.2921 26.8782 19.8697 26.1204C20.4472 26.8782 21.3493 27.3274 22.3046 27.3274C23.2598 27.3274 24.1619 26.8781 24.7395 26.1204C25.317 26.8782 26.2191 27.3274 27.1743 27.3274C27.8971 27.3274 28.5825 27.0703 29.1213 26.6263V29.0329H29.1211ZM29.1211 16.7123V18.6384C28.7515 19.3702 27.9975 19.8391 27.1741 19.8391C26.4673 19.8391 25.8011 19.4938 25.3922 18.9154C25.2426 18.7039 24.9986 18.5776 24.7393 18.5776C24.48 18.5776 24.236 18.7039 24.0864 18.9154C23.6774 19.4938 23.0112 19.8391 22.3044 19.8391C21.5976 19.8391 20.9314 19.4938 20.5225 18.9154C20.3729 18.7039 20.1288 18.5776 19.8695 18.5776C19.6102 18.5776 19.3662 18.7039 19.2167 18.9154C18.8077 19.4938 18.1415 19.8391 17.4347 19.8391C16.7279 19.8391 16.0617 19.4938 15.6528 18.9154C15.5032 18.7039 15.2592 18.5776 14.9999 18.5776C14.7406 18.5776 14.4966 18.7039 14.347 18.9154C13.938 19.4938 13.2718 19.8391 12.565 19.8391C12.4158 19.8391 12.2664 19.8233 12.1189 19.7923C11.2482 18.441 9.77602 17.5124 8.08383 17.3877C8.91498 17.2808 9.64465 16.8435 10.1303 16.2064C10.4277 16.5967 10.8118 16.9026 11.23 17.1061H11.23C12.5447 17.7452 14.1219 17.3596 14.9999 16.2064C16.2271 17.8165 18.6465 17.8109 19.8697 16.2064C21.0987 17.8182 23.5191 17.8102 24.7393 16.2065C25.7855 17.579 27.7736 17.8242 29.1211 16.7123ZM23.1898 4.05176C23.1898 3.27152 23.8246 2.63672 24.6048 2.63672C25.385 2.63672 26.0198 3.27152 26.0198 4.05176V9.7169H23.1897V4.05176H23.1898Z" fill="black"/>
</svg>
