<svg width="30" height="31" viewBox="0 0 30 31" fill="none" xmlns="http://www.w3.org/2000/svg">
<path d="M27.2461 11.1484H2.46094V27.5254H27.2461V11.1484Z" fill="#FFCE54"/>
<path d="M2.57812 5.43647L1.96289 7.33983L0.761719 10.8848L1.52344 12.9355L4.54102 13.1992L6.38672 11.3242L6.97172 5.42639L2.57812 5.43647Z" fill="#ED5564"/>
<path d="M7.34438 5.42639L6.38672 11.3242L8.00812 13.4144L9.9948 13.6487L11.9147 11.9294L12.4951 5.42639H7.34438Z" fill="#F5F7FA"/>
<path d="M17.5397 5.71838H12.6572L12.0273 10.6723L13.2038 12.8668L15.7041 13.1992L17.5397 12.2424L17.7741 10.4059L17.5397 5.71838Z" fill="#ED5564"/>
<path d="M22.8519 5.42639L17.5391 5.71842L17.9684 11.1091L19.1797 13.1992L21.7578 13.4144L23.0863 12.2809L23.3206 10.8747L22.8519 5.42639Z" fill="#F5F7FA"/>
<path d="M27.54 5.42639L23.1152 5.71842L23.3212 8.67284L23.7744 12.1592L25.3857 13.4775L27.54 13.331L28.9746 12.5107L29.2969 9.81542L27.54 5.42639Z" fill="#ED5564"/>
<path d="M26.8748 2.55518H3.125V5.42627H26.8748V2.55518Z" fill="#F5F7FA"/>
<path d="M16.0545 15.9924H4.84375V23.5311H16.0545V15.9924Z" fill="#4FC2E9"/>
<path d="M25.2348 15.9924H18.7109V27.3204H25.2348V15.9924Z" fill="#4FC2E9"/>
<path d="M29.9561 10.0663L29.9359 9.9527C29.9323 9.93624 29.9304 9.9179 29.9268 9.90143L27.8229 4.8203V2.32092H2.1423V4.8203L0.0732422 9.90149C0.0686719 9.92165 0.065918 9.9418 0.0622266 9.96102L0.0430078 10.0663C0.0146484 10.2475 0 10.4343 0 10.6238C0 11.9825 0.758086 13.1635 1.875 13.7669V27.9447H28.125V13.7669C29.241 13.1635 30 11.9825 30 10.6238C30 10.4343 29.9844 10.2475 29.9561 10.0663ZM28.5434 9.82092H23.9511L23.3991 6.10936H27.0319L28.5434 9.82092ZM3.39293 3.56967H26.5731V4.8203H3.39293V3.56967ZM22.8735 11.0697L22.9413 11.5238L22.5714 12.0163C22.1283 12.6059 21.4508 12.9447 20.7138 12.9447C19.9768 12.9447 19.2993 12.6059 18.8562 12.0163L18.479 11.5128L18.457 11.0697H22.8735ZM18.3957 9.82092L18.2135 6.10936H22.1347L22.6877 9.82092H18.3957ZM17.2055 11.0697L17.2275 11.5238L16.8567 12.0163C16.4136 12.6059 15.7361 12.9447 15 12.9447C14.2621 12.9447 13.5855 12.6059 13.1415 12.0163L12.7624 11.51L12.7844 11.0696H17.2055V11.0697ZM12.8476 9.82092L13.0353 6.10936H16.9629L17.1442 9.82092H12.8476ZM7.31871 9.82092L7.86439 6.10936H11.7847L11.5961 9.82092H7.31871ZM11.532 11.0697L11.509 11.5283L11.1428 12.0163C10.6988 12.6059 10.0222 12.9447 9.28523 12.9447C8.54824 12.9447 7.87166 12.6059 7.42764 12.0163L7.06693 11.5357L7.13561 11.0697H11.532ZM2.96725 6.10936H6.601L6.05537 9.82092H1.45576L2.96725 6.10936ZM1.2927 11.0697H5.87215L5.78883 11.5357L5.429 12.0163C4.98498 12.6059 4.3084 12.9447 3.57047 12.9447C2.44354 12.9447 1.50146 12.1372 1.2927 11.0697ZM24.375 26.6959H19.3744V22.3197H19.9997C20.3449 22.3197 20.625 22.0404 20.625 21.6953C20.625 21.3502 20.3449 21.0709 19.9997 21.0709H19.3744V16.6947H24.375V26.6959ZM26.8744 26.6959H25.6247V15.4459H18.1247V26.6959H3.12469V14.1678C3.27023 14.1861 3.42041 14.1953 3.57053 14.1953C4.73877 14.1953 5.77693 13.6341 6.42791 12.7671C7.07977 13.6341 8.11705 14.1953 9.28529 14.1953C10.4535 14.1953 11.4908 13.6341 12.1427 12.7671C12.7936 13.6341 13.8318 14.1953 15 14.1953C16.1682 14.1953 17.2046 13.6341 17.8564 12.7671C18.5083 13.6341 19.5456 14.1953 20.7138 14.1953C21.8821 14.1953 22.9194 13.6341 23.5712 12.7671C24.223 13.6341 25.2594 14.1953 26.4276 14.1953C26.5796 14.1953 26.7279 14.1862 26.8744 14.1678V26.6959ZM26.4276 12.9447C25.6915 12.9447 25.014 12.6059 24.5709 12.0163L24.2257 11.5576L24.1369 11.0697H28.7054C28.4967 12.1372 27.5555 12.9447 26.4276 12.9447Z" fill="black"/>
<path d="M4.375 24.1947H16.8756V15.4459H4.375V24.1947ZM5.62563 16.6947H15.625V22.9459H5.62563V16.6947Z" fill="black"/>
<path d="M14.3711 19.8203C14.1981 19.8203 14.0415 19.8899 13.9289 20.0034L12.6792 21.254C12.5656 21.3667 12.4961 21.5232 12.4961 21.6953C12.4961 22.0405 12.7762 22.3197 13.1205 22.3197C13.2935 22.3197 13.4501 22.2501 13.5627 22.1366L14.8124 20.8878C14.9259 20.7743 14.9955 20.6178 14.9955 20.4447C14.9955 20.1004 14.7163 19.8203 14.3711 19.8203Z" fill="black"/>
<path d="M14.3695 17.3209C14.1964 17.3209 14.0399 17.3905 13.9272 17.504L10.1772 21.2531C10.0646 21.3657 9.99414 21.5231 9.99414 21.6953C9.99414 22.0405 10.2743 22.3197 10.6195 22.3197C10.7916 22.3197 10.9481 22.2501 11.0607 22.1366L14.8107 18.3875C14.9243 18.2749 14.9938 18.1174 14.9938 17.9453C14.9938 17.6001 14.7146 17.3209 14.3695 17.3209Z" fill="black"/>
</svg>
